<mxfile host="app.diagrams.net" modified="2021-10-19T03:34:03.102Z" agent="5.0 (Windows NT 10.0; Win64; x64) AppleWebKit/537.36 (KHTML, like Gecko) Chrome/94.0.4606.81 Safari/537.36" etag="Un9v4FgNXuck5OSWb_OL" version="15.3.5" type="github">
  <diagram id="3BFR3GqZxXMxbAWBfeUj" name="Page-1">
    <mxGraphModel dx="1038" dy="539" grid="0" gridSize="10" guides="1" tooltips="1" connect="1" arrows="1" fold="1" page="1" pageScale="1" pageWidth="827" pageHeight="1169" math="0" shadow="0">
      <root>
        <mxCell id="0" />
        <mxCell id="1" parent="0" />
        <mxCell id="7UlHeGkB-n3cVjGxctKM-30" value="" style="rounded=1;whiteSpace=wrap;html=1;dashed=1;" parent="1" vertex="1">
          <mxGeometry x="677.25" y="470" width="108.5" height="316" as="geometry" />
        </mxCell>
        <mxCell id="7UlHeGkB-n3cVjGxctKM-27" value="" style="rounded=1;whiteSpace=wrap;html=1;dashed=1;" parent="1" vertex="1">
          <mxGeometry x="312" y="76" width="103" height="234" as="geometry" />
        </mxCell>
        <mxCell id="7UlHeGkB-n3cVjGxctKM-21" value="" style="rounded=1;whiteSpace=wrap;html=1;dashed=1;" parent="1" vertex="1">
          <mxGeometry x="430" y="239" width="284.5" height="220" as="geometry" />
        </mxCell>
        <mxCell id="7UlHeGkB-n3cVjGxctKM-20" value="" style="rounded=1;whiteSpace=wrap;html=1;dashed=1;" parent="1" vertex="1">
          <mxGeometry x="17.5" y="239" width="284.5" height="220" as="geometry" />
        </mxCell>
        <mxCell id="pgLIFL3BZB2Xo_3dE_xm-11" value="" style="rounded=1;whiteSpace=wrap;html=1;dashed=1;" parent="1" vertex="1">
          <mxGeometry x="189" y="568" width="380" height="110" as="geometry" />
        </mxCell>
        <mxCell id="EAKdSy7ptGbpC2-vD8Ey-16" value="" style="rounded=1;whiteSpace=wrap;html=1;dashed=1;" parent="1" vertex="1">
          <mxGeometry x="79" y="708" width="240" height="430" as="geometry" />
        </mxCell>
        <mxCell id="EAKdSy7ptGbpC2-vD8Ey-4" value="三层交换机" style="shape=mxgraph.cisco.switches.layer_3_switch;html=1;pointerEvents=1;dashed=0;fillColor=#036897;strokeColor=#ffffff;strokeWidth=2;verticalLabelPosition=bottom;verticalAlign=top;align=center;outlineConnect=0;" parent="1" vertex="1">
          <mxGeometry x="219.5" y="928" width="50" height="50" as="geometry" />
        </mxCell>
        <mxCell id="EAKdSy7ptGbpC2-vD8Ey-7" style="rounded=1;orthogonalLoop=1;jettySize=auto;html=1;exitX=0.5;exitY=1;exitDx=0;exitDy=0;exitPerimeter=0;entryX=0.5;entryY=0;entryDx=0;entryDy=0;entryPerimeter=0;endArrow=none;endFill=0;startArrow=none;startFill=0;" parent="1" source="EAKdSy7ptGbpC2-vD8Ey-5" target="EAKdSy7ptGbpC2-vD8Ey-4" edge="1">
          <mxGeometry relative="1" as="geometry" />
        </mxCell>
        <mxCell id="EAKdSy7ptGbpC2-vD8Ey-5" value="华为防火墙" style="shape=mxgraph.cisco.security.firewall;html=1;pointerEvents=1;dashed=0;fillColor=#036897;strokeColor=#ffffff;strokeWidth=2;verticalLabelPosition=bottom;verticalAlign=top;align=center;outlineConnect=0;" parent="1" vertex="1">
          <mxGeometry x="230" y="818" width="29" height="67" as="geometry" />
        </mxCell>
        <mxCell id="EAKdSy7ptGbpC2-vD8Ey-11" style="edgeStyle=none;rounded=1;orthogonalLoop=1;jettySize=auto;html=1;exitX=0.5;exitY=0;exitDx=0;exitDy=0;exitPerimeter=0;entryX=0.5;entryY=1;entryDx=0;entryDy=0;entryPerimeter=0;startArrow=none;startFill=0;endArrow=none;endFill=0;" parent="1" source="EAKdSy7ptGbpC2-vD8Ey-5" target="EAKdSy7ptGbpC2-vD8Ey-10" edge="1">
          <mxGeometry relative="1" as="geometry" />
        </mxCell>
        <mxCell id="EAKdSy7ptGbpC2-vD8Ey-8" value="速宝SD-WAN设备&amp;nbsp;" style="shape=mxgraph.cisco.routers.content_service_router;html=1;pointerEvents=1;dashed=0;fillColor=#036897;strokeColor=#ffffff;strokeWidth=2;verticalLabelPosition=bottom;verticalAlign=top;align=center;outlineConnect=0;" parent="1" vertex="1">
          <mxGeometry x="99" y="850" width="70" height="38" as="geometry" />
        </mxCell>
        <mxCell id="EAKdSy7ptGbpC2-vD8Ey-9" style="rounded=1;orthogonalLoop=1;jettySize=auto;html=1;exitX=0;exitY=0.5;exitDx=0;exitDy=0;exitPerimeter=0;endArrow=none;endFill=0;startArrow=none;startFill=0;entryX=0.5;entryY=0;entryDx=0;entryDy=0;entryPerimeter=0;" parent="1" source="EAKdSy7ptGbpC2-vD8Ey-5" target="EAKdSy7ptGbpC2-vD8Ey-8" edge="1">
          <mxGeometry relative="1" as="geometry">
            <mxPoint x="254.5" y="895" as="sourcePoint" />
            <mxPoint x="254.5" y="948" as="targetPoint" />
          </mxGeometry>
        </mxCell>
        <mxCell id="EAKdSy7ptGbpC2-vD8Ey-15" style="edgeStyle=none;rounded=1;orthogonalLoop=1;jettySize=auto;html=1;exitX=0.5;exitY=0;exitDx=0;exitDy=0;exitPerimeter=0;entryX=0.5;entryY=1;entryDx=0;entryDy=0;entryPerimeter=0;startArrow=none;startFill=0;endArrow=none;endFill=0;" parent="1" source="EAKdSy7ptGbpC2-vD8Ey-10" target="EAKdSy7ptGbpC2-vD8Ey-14" edge="1">
          <mxGeometry relative="1" as="geometry" />
        </mxCell>
        <mxCell id="EAKdSy7ptGbpC2-vD8Ey-10" value="电信光猫" style="shape=mxgraph.cisco.modems_and_phones.cable_modem;html=1;pointerEvents=1;dashed=0;fillColor=#036897;strokeColor=#ffffff;strokeWidth=2;verticalLabelPosition=bottom;verticalAlign=top;align=center;outlineConnect=0;" parent="1" vertex="1">
          <mxGeometry x="207.5" y="728" width="74" height="35" as="geometry" />
        </mxCell>
        <mxCell id="EAKdSy7ptGbpC2-vD8Ey-13" style="edgeStyle=none;rounded=1;orthogonalLoop=1;jettySize=auto;html=1;entryX=0.5;entryY=1;entryDx=0;entryDy=0;entryPerimeter=0;startArrow=none;startFill=0;endArrow=none;endFill=0;" parent="1" source="EAKdSy7ptGbpC2-vD8Ey-12" target="EAKdSy7ptGbpC2-vD8Ey-4" edge="1">
          <mxGeometry relative="1" as="geometry" />
        </mxCell>
        <mxCell id="EAKdSy7ptGbpC2-vD8Ey-12" value="PC" style="shape=mxgraph.cisco.computers_and_peripherals.laptop;html=1;pointerEvents=1;dashed=0;fillColor=#036897;strokeColor=#ffffff;strokeWidth=2;verticalLabelPosition=bottom;verticalAlign=top;align=center;outlineConnect=0;" parent="1" vertex="1">
          <mxGeometry x="204.5" y="1018" width="80" height="50" as="geometry" />
        </mxCell>
        <mxCell id="pgLIFL3BZB2Xo_3dE_xm-2" style="edgeStyle=none;orthogonalLoop=1;jettySize=auto;html=1;entryX=0;entryY=0.5;entryDx=0;entryDy=0;entryPerimeter=0;startArrow=none;startFill=0;endArrow=none;endFill=0;rounded=1;strokeColor=#CC6600;strokeWidth=4;" parent="1" source="EAKdSy7ptGbpC2-vD8Ey-14" target="pgLIFL3BZB2Xo_3dE_xm-1" edge="1">
          <mxGeometry relative="1" as="geometry" />
        </mxCell>
        <mxCell id="EAKdSy7ptGbpC2-vD8Ey-14" value="POP点（武汉1）" style="shape=mxgraph.cisco.hubs_and_gateways.generic_gateway;html=1;pointerEvents=1;dashed=0;fillColor=#036897;strokeColor=#ffffff;strokeWidth=2;verticalLabelPosition=bottom;verticalAlign=top;align=center;outlineConnect=0;" parent="1" vertex="1">
          <mxGeometry x="220" y="588" width="49" height="60" as="geometry" />
        </mxCell>
        <mxCell id="EAKdSy7ptGbpC2-vD8Ey-17" style="edgeStyle=none;rounded=1;orthogonalLoop=1;jettySize=auto;html=1;exitX=0.5;exitY=0;exitDx=0;exitDy=0;startArrow=none;startFill=0;endArrow=none;endFill=0;" parent="1" source="EAKdSy7ptGbpC2-vD8Ey-16" target="EAKdSy7ptGbpC2-vD8Ey-16" edge="1">
          <mxGeometry relative="1" as="geometry" />
        </mxCell>
        <mxCell id="pgLIFL3BZB2Xo_3dE_xm-1" value="POP点（上海2）" style="shape=mxgraph.cisco.hubs_and_gateways.generic_gateway;html=1;pointerEvents=1;dashed=0;fillColor=#036897;strokeColor=#ffffff;strokeWidth=2;verticalLabelPosition=bottom;verticalAlign=top;align=center;outlineConnect=0;" parent="1" vertex="1">
          <mxGeometry x="465.75" y="588" width="49" height="60" as="geometry" />
        </mxCell>
        <mxCell id="pgLIFL3BZB2Xo_3dE_xm-4" value="专线" style="text;html=1;align=center;verticalAlign=middle;resizable=0;points=[];autosize=1;" parent="1" vertex="1">
          <mxGeometry x="359" y="628" width="40" height="20" as="geometry" />
        </mxCell>
        <mxCell id="pgLIFL3BZB2Xo_3dE_xm-6" value="&lt;span style=&quot;font-size: 14px&quot;&gt;武汉&lt;/span&gt;" style="text;html=1;resizable=0;autosize=1;align=center;verticalAlign=middle;points=[];fillColor=#fa6800;strokeColor=#C73500;rounded=0;dashed=1;fontColor=#ffffff;fontStyle=1" parent="1" vertex="1">
          <mxGeometry x="224.5" y="1098" width="40" height="20" as="geometry" />
        </mxCell>
        <mxCell id="pgLIFL3BZB2Xo_3dE_xm-12" value="&lt;font style=&quot;font-size: 14px&quot;&gt;SD-WAN骨干网&lt;/font&gt;" style="text;html=1;resizable=0;autosize=1;align=center;verticalAlign=middle;points=[];fillColor=#fa6800;strokeColor=#C73500;rounded=0;dashed=1;fontColor=#ffffff;fontStyle=1" parent="1" vertex="1">
          <mxGeometry x="309" y="578" width="110" height="20" as="geometry" />
        </mxCell>
        <mxCell id="CFlZzpwRj5Hc7I2CVyy_-1" style="rounded=1;orthogonalLoop=1;jettySize=auto;html=1;exitX=0;exitY=1;exitDx=0;exitDy=0;exitPerimeter=0;endArrow=none;endFill=0;startArrow=none;startFill=0;entryX=0.86;entryY=0.91;entryDx=0;entryDy=0;entryPerimeter=0;" parent="1" source="EAKdSy7ptGbpC2-vD8Ey-5" target="EAKdSy7ptGbpC2-vD8Ey-8" edge="1">
          <mxGeometry relative="1" as="geometry">
            <mxPoint x="219.5" y="894.95" as="sourcePoint" />
            <mxPoint x="124" y="851.0419540229884" as="targetPoint" />
          </mxGeometry>
        </mxCell>
        <mxCell id="CFlZzpwRj5Hc7I2CVyy_-12" value="" style="rounded=1;whiteSpace=wrap;html=1;dashed=1;" parent="1" vertex="1">
          <mxGeometry x="412" y="708" width="256" height="430" as="geometry" />
        </mxCell>
        <mxCell id="CFlZzpwRj5Hc7I2CVyy_-13" value="三层交换机" style="shape=mxgraph.cisco.switches.layer_3_switch;html=1;pointerEvents=1;dashed=0;fillColor=#036897;strokeColor=#ffffff;strokeWidth=2;verticalLabelPosition=bottom;verticalAlign=top;align=center;outlineConnect=0;" parent="1" vertex="1">
          <mxGeometry x="464.75" y="928" width="50" height="50" as="geometry" />
        </mxCell>
        <mxCell id="CFlZzpwRj5Hc7I2CVyy_-14" style="rounded=1;orthogonalLoop=1;jettySize=auto;html=1;exitX=0.5;exitY=1;exitDx=0;exitDy=0;exitPerimeter=0;entryX=0.5;entryY=0;entryDx=0;entryDy=0;entryPerimeter=0;endArrow=none;endFill=0;startArrow=none;startFill=0;" parent="1" source="CFlZzpwRj5Hc7I2CVyy_-15" target="CFlZzpwRj5Hc7I2CVyy_-13" edge="1">
          <mxGeometry relative="1" as="geometry" />
        </mxCell>
        <mxCell id="CFlZzpwRj5Hc7I2CVyy_-15" value="华为防火墙" style="shape=mxgraph.cisco.security.firewall;html=1;pointerEvents=1;dashed=0;fillColor=#036897;strokeColor=#ffffff;strokeWidth=2;verticalLabelPosition=bottom;verticalAlign=top;align=center;outlineConnect=0;" parent="1" vertex="1">
          <mxGeometry x="475.25" y="818" width="29" height="67" as="geometry" />
        </mxCell>
        <mxCell id="CFlZzpwRj5Hc7I2CVyy_-16" style="edgeStyle=none;rounded=1;orthogonalLoop=1;jettySize=auto;html=1;exitX=0.5;exitY=0;exitDx=0;exitDy=0;exitPerimeter=0;entryX=0.5;entryY=1;entryDx=0;entryDy=0;entryPerimeter=0;startArrow=none;startFill=0;endArrow=none;endFill=0;" parent="1" source="CFlZzpwRj5Hc7I2CVyy_-15" target="CFlZzpwRj5Hc7I2CVyy_-19" edge="1">
          <mxGeometry relative="1" as="geometry" />
        </mxCell>
        <mxCell id="CFlZzpwRj5Hc7I2CVyy_-17" value="速宝SD-WAN设备&amp;nbsp;" style="shape=mxgraph.cisco.routers.content_service_router;html=1;pointerEvents=1;dashed=0;fillColor=#036897;strokeColor=#ffffff;strokeWidth=2;verticalLabelPosition=bottom;verticalAlign=top;align=center;outlineConnect=0;" parent="1" vertex="1">
          <mxGeometry x="579" y="938" width="70" height="40" as="geometry" />
        </mxCell>
        <mxCell id="CFlZzpwRj5Hc7I2CVyy_-18" style="rounded=1;orthogonalLoop=1;jettySize=auto;html=1;endArrow=none;endFill=0;startArrow=none;startFill=0;exitX=1;exitY=0.5;exitDx=0;exitDy=0;exitPerimeter=0;" parent="1" source="CFlZzpwRj5Hc7I2CVyy_-13" edge="1">
          <mxGeometry relative="1" as="geometry">
            <mxPoint x="529" y="948" as="sourcePoint" />
            <mxPoint x="589" y="953" as="targetPoint" />
          </mxGeometry>
        </mxCell>
        <mxCell id="CFlZzpwRj5Hc7I2CVyy_-19" value="电信光猫" style="shape=mxgraph.cisco.modems_and_phones.cable_modem;html=1;pointerEvents=1;dashed=0;fillColor=#036897;strokeColor=#ffffff;strokeWidth=2;verticalLabelPosition=bottom;verticalAlign=top;align=center;outlineConnect=0;" parent="1" vertex="1">
          <mxGeometry x="452.75" y="728" width="74" height="35" as="geometry" />
        </mxCell>
        <mxCell id="CFlZzpwRj5Hc7I2CVyy_-20" style="edgeStyle=none;rounded=1;orthogonalLoop=1;jettySize=auto;html=1;entryX=0.5;entryY=1;entryDx=0;entryDy=0;entryPerimeter=0;startArrow=none;startFill=0;endArrow=none;endFill=0;" parent="1" source="CFlZzpwRj5Hc7I2CVyy_-21" target="CFlZzpwRj5Hc7I2CVyy_-13" edge="1">
          <mxGeometry relative="1" as="geometry" />
        </mxCell>
        <mxCell id="CFlZzpwRj5Hc7I2CVyy_-21" value="PC" style="shape=mxgraph.cisco.computers_and_peripherals.laptop;html=1;pointerEvents=1;dashed=0;fillColor=#036897;strokeColor=#ffffff;strokeWidth=2;verticalLabelPosition=bottom;verticalAlign=top;align=center;outlineConnect=0;" parent="1" vertex="1">
          <mxGeometry x="449.75" y="1018" width="80" height="50" as="geometry" />
        </mxCell>
        <mxCell id="CFlZzpwRj5Hc7I2CVyy_-22" style="edgeStyle=none;rounded=1;orthogonalLoop=1;jettySize=auto;html=1;exitX=0.5;exitY=0;exitDx=0;exitDy=0;startArrow=none;startFill=0;endArrow=none;endFill=0;" parent="1" edge="1">
          <mxGeometry relative="1" as="geometry">
            <mxPoint x="544.2499999999998" y="708" as="sourcePoint" />
            <mxPoint x="544.2499999999998" y="708" as="targetPoint" />
          </mxGeometry>
        </mxCell>
        <mxCell id="CFlZzpwRj5Hc7I2CVyy_-23" value="&lt;span style=&quot;font-size: 14px&quot;&gt;上海&lt;/span&gt;" style="text;html=1;resizable=0;autosize=1;align=center;verticalAlign=middle;points=[];fillColor=#fa6800;strokeColor=#C73500;rounded=0;dashed=1;fontColor=#ffffff;fontStyle=1" parent="1" vertex="1">
          <mxGeometry x="469.75" y="1098" width="40" height="20" as="geometry" />
        </mxCell>
        <mxCell id="CFlZzpwRj5Hc7I2CVyy_-24" style="rounded=1;orthogonalLoop=1;jettySize=auto;html=1;endArrow=none;endFill=0;startArrow=none;startFill=0;entryX=0.14;entryY=0.91;entryDx=0;entryDy=0;entryPerimeter=0;exitX=0.95;exitY=0.94;exitDx=0;exitDy=0;exitPerimeter=0;" parent="1" source="CFlZzpwRj5Hc7I2CVyy_-13" target="CFlZzpwRj5Hc7I2CVyy_-17" edge="1">
          <mxGeometry relative="1" as="geometry">
            <mxPoint x="509" y="885" as="sourcePoint" />
            <mxPoint x="369.25" y="851.0419540229884" as="targetPoint" />
          </mxGeometry>
        </mxCell>
        <mxCell id="CFlZzpwRj5Hc7I2CVyy_-25" style="edgeStyle=none;rounded=1;orthogonalLoop=1;jettySize=auto;html=1;exitX=0.5;exitY=0;exitDx=0;exitDy=0;exitPerimeter=0;entryX=0.5;entryY=1;entryDx=0;entryDy=0;entryPerimeter=0;startArrow=none;startFill=0;endArrow=none;endFill=0;" parent="1" source="CFlZzpwRj5Hc7I2CVyy_-19" target="pgLIFL3BZB2Xo_3dE_xm-1" edge="1">
          <mxGeometry relative="1" as="geometry">
            <mxPoint x="492.9100000000002" y="718" as="sourcePoint" />
            <mxPoint x="492.9100000000002" y="638" as="targetPoint" />
          </mxGeometry>
        </mxCell>
        <mxCell id="7UlHeGkB-n3cVjGxctKM-1" value="POP点（主IDC4）" style="shape=mxgraph.cisco.hubs_and_gateways.generic_gateway;html=1;pointerEvents=1;dashed=0;fillColor=#036897;strokeColor=#ffffff;strokeWidth=2;verticalLabelPosition=bottom;verticalAlign=top;align=center;outlineConnect=0;" parent="1" vertex="1">
          <mxGeometry x="220.5" y="363" width="49" height="60" as="geometry" />
        </mxCell>
        <mxCell id="7UlHeGkB-n3cVjGxctKM-2" value="POP点（备IDC5）" style="shape=mxgraph.cisco.hubs_and_gateways.generic_gateway;html=1;pointerEvents=1;dashed=0;fillColor=#036897;strokeColor=#ffffff;strokeWidth=2;verticalLabelPosition=bottom;verticalAlign=top;align=center;outlineConnect=0;" parent="1" vertex="1">
          <mxGeometry x="465.75" y="363" width="49" height="60" as="geometry" />
        </mxCell>
        <mxCell id="7UlHeGkB-n3cVjGxctKM-3" value="POP点（云IDC6）" style="shape=mxgraph.cisco.hubs_and_gateways.generic_gateway;html=1;pointerEvents=1;dashed=0;fillColor=#036897;strokeColor=#ffffff;strokeWidth=2;verticalLabelPosition=bottom;verticalAlign=top;align=center;outlineConnect=0;" parent="1" vertex="1">
          <mxGeometry x="339.5" y="214" width="49" height="60" as="geometry" />
        </mxCell>
        <mxCell id="7UlHeGkB-n3cVjGxctKM-4" value="防火墙" style="shape=mxgraph.cisco.security.firewall;html=1;pointerEvents=1;dashed=0;fillColor=#036897;strokeColor=#ffffff;strokeWidth=2;verticalLabelPosition=bottom;verticalAlign=top;align=center;outlineConnect=0;" parent="1" vertex="1">
          <mxGeometry x="123" y="359.5" width="29" height="67" as="geometry" />
        </mxCell>
        <mxCell id="7UlHeGkB-n3cVjGxctKM-5" value="三层交换机" style="shape=mxgraph.cisco.switches.layer_3_switch;html=1;pointerEvents=1;dashed=0;fillColor=#036897;strokeColor=#ffffff;strokeWidth=2;verticalLabelPosition=bottom;verticalAlign=top;align=center;outlineConnect=0;" parent="1" vertex="1">
          <mxGeometry x="41" y="266" width="50" height="50" as="geometry" />
        </mxCell>
        <mxCell id="7UlHeGkB-n3cVjGxctKM-6" value="防火墙" style="shape=mxgraph.cisco.security.firewall;html=1;pointerEvents=1;dashed=0;fillColor=#036897;strokeColor=#ffffff;strokeWidth=2;verticalLabelPosition=bottom;verticalAlign=top;align=center;outlineConnect=0;" parent="1" vertex="1">
          <mxGeometry x="587" y="359.5" width="29" height="67" as="geometry" />
        </mxCell>
        <mxCell id="7UlHeGkB-n3cVjGxctKM-7" value="三层交换机" style="shape=mxgraph.cisco.switches.layer_3_switch;html=1;pointerEvents=1;dashed=0;fillColor=#036897;strokeColor=#ffffff;strokeWidth=2;verticalLabelPosition=bottom;verticalAlign=top;align=center;outlineConnect=0;" parent="1" vertex="1">
          <mxGeometry x="646" y="260" width="50" height="50" as="geometry" />
        </mxCell>
        <mxCell id="7UlHeGkB-n3cVjGxctKM-8" value="三层交换机" style="shape=mxgraph.cisco.switches.layer_3_switch;html=1;pointerEvents=1;dashed=0;fillColor=#036897;strokeColor=#ffffff;strokeWidth=2;verticalLabelPosition=bottom;verticalAlign=top;align=center;outlineConnect=0;" parent="1" vertex="1">
          <mxGeometry x="339.5" y="99" width="50" height="50" as="geometry" />
        </mxCell>
        <mxCell id="7UlHeGkB-n3cVjGxctKM-9" style="rounded=1;orthogonalLoop=1;jettySize=auto;html=1;exitX=0;exitY=0.5;exitDx=0;exitDy=0;exitPerimeter=0;endArrow=none;endFill=0;startArrow=none;startFill=0;entryX=1;entryY=0.5;entryDx=0;entryDy=0;entryPerimeter=0;" parent="1" source="7UlHeGkB-n3cVjGxctKM-1" target="7UlHeGkB-n3cVjGxctKM-4" edge="1">
          <mxGeometry relative="1" as="geometry">
            <mxPoint x="243" y="323.5" as="sourcePoint" />
            <mxPoint x="147" y="322" as="targetPoint" />
          </mxGeometry>
        </mxCell>
        <mxCell id="7UlHeGkB-n3cVjGxctKM-10" style="rounded=1;orthogonalLoop=1;jettySize=auto;html=1;exitX=0;exitY=0.5;exitDx=0;exitDy=0;exitPerimeter=0;endArrow=none;endFill=0;startArrow=none;startFill=0;entryX=0.5;entryY=1;entryDx=0;entryDy=0;entryPerimeter=0;" parent="1" source="7UlHeGkB-n3cVjGxctKM-4" target="7UlHeGkB-n3cVjGxctKM-5" edge="1">
          <mxGeometry relative="1" as="geometry">
            <mxPoint x="230.5" y="403" as="sourcePoint" />
            <mxPoint x="135" y="403" as="targetPoint" />
          </mxGeometry>
        </mxCell>
        <mxCell id="7UlHeGkB-n3cVjGxctKM-11" style="edgeStyle=none;orthogonalLoop=1;jettySize=auto;html=1;startArrow=none;startFill=0;endArrow=none;endFill=0;rounded=1;strokeColor=#CC6600;strokeWidth=4;entryX=0.5;entryY=1;entryDx=0;entryDy=0;entryPerimeter=0;exitX=0.5;exitY=0;exitDx=0;exitDy=0;exitPerimeter=0;" parent="1" source="pgLIFL3BZB2Xo_3dE_xm-1" target="7UlHeGkB-n3cVjGxctKM-2" edge="1">
          <mxGeometry relative="1" as="geometry">
            <mxPoint x="279" y="628" as="sourcePoint" />
            <mxPoint x="475.75" y="628" as="targetPoint" />
          </mxGeometry>
        </mxCell>
        <mxCell id="7UlHeGkB-n3cVjGxctKM-12" value="POP点（移动3）" style="shape=mxgraph.cisco.hubs_and_gateways.generic_gateway;html=1;pointerEvents=1;dashed=0;fillColor=#036897;strokeColor=#ffffff;strokeWidth=2;verticalLabelPosition=bottom;verticalAlign=top;align=center;outlineConnect=0;" parent="1" vertex="1">
          <mxGeometry x="706" y="588" width="49" height="60" as="geometry" />
        </mxCell>
        <mxCell id="7UlHeGkB-n3cVjGxctKM-13" style="edgeStyle=none;orthogonalLoop=1;jettySize=auto;html=1;startArrow=none;startFill=0;endArrow=none;endFill=0;rounded=1;strokeColor=#CC6600;strokeWidth=4;entryX=0.5;entryY=1;entryDx=0;entryDy=0;entryPerimeter=0;exitX=0.5;exitY=0;exitDx=0;exitDy=0;exitPerimeter=0;" parent="1" source="7UlHeGkB-n3cVjGxctKM-1" target="7UlHeGkB-n3cVjGxctKM-3" edge="1">
          <mxGeometry relative="1" as="geometry">
            <mxPoint x="500.25" y="598" as="sourcePoint" />
            <mxPoint x="500.25" y="433" as="targetPoint" />
          </mxGeometry>
        </mxCell>
        <mxCell id="7UlHeGkB-n3cVjGxctKM-14" style="edgeStyle=none;orthogonalLoop=1;jettySize=auto;html=1;startArrow=none;startFill=0;endArrow=none;endFill=0;rounded=1;strokeColor=#CC6600;strokeWidth=4;entryX=0.5;entryY=1;entryDx=0;entryDy=0;entryPerimeter=0;exitX=0.5;exitY=0;exitDx=0;exitDy=0;exitPerimeter=0;" parent="1" source="7UlHeGkB-n3cVjGxctKM-2" target="7UlHeGkB-n3cVjGxctKM-3" edge="1">
          <mxGeometry relative="1" as="geometry">
            <mxPoint x="255" y="373" as="sourcePoint" />
            <mxPoint x="374" y="284" as="targetPoint" />
          </mxGeometry>
        </mxCell>
        <mxCell id="7UlHeGkB-n3cVjGxctKM-15" style="edgeStyle=none;orthogonalLoop=1;jettySize=auto;html=1;startArrow=none;startFill=0;endArrow=none;endFill=0;rounded=1;strokeColor=#CC6600;strokeWidth=4;entryX=1;entryY=0.5;entryDx=0;entryDy=0;entryPerimeter=0;exitX=0;exitY=0.5;exitDx=0;exitDy=0;exitPerimeter=0;" parent="1" source="7UlHeGkB-n3cVjGxctKM-2" target="7UlHeGkB-n3cVjGxctKM-1" edge="1">
          <mxGeometry relative="1" as="geometry">
            <mxPoint x="500.25" y="373" as="sourcePoint" />
            <mxPoint x="374" y="284" as="targetPoint" />
          </mxGeometry>
        </mxCell>
        <mxCell id="7UlHeGkB-n3cVjGxctKM-16" style="edgeStyle=none;orthogonalLoop=1;jettySize=auto;html=1;startArrow=none;startFill=0;endArrow=none;endFill=0;rounded=1;strokeColor=#CC6600;strokeWidth=4;entryX=0.5;entryY=1;entryDx=0;entryDy=0;entryPerimeter=0;exitX=0.5;exitY=0;exitDx=0;exitDy=0;exitPerimeter=0;" parent="1" source="EAKdSy7ptGbpC2-vD8Ey-14" target="7UlHeGkB-n3cVjGxctKM-1" edge="1">
          <mxGeometry relative="1" as="geometry">
            <mxPoint x="475.75" y="403" as="sourcePoint" />
            <mxPoint x="279.5" y="403" as="targetPoint" />
          </mxGeometry>
        </mxCell>
        <mxCell id="7UlHeGkB-n3cVjGxctKM-17" value="" style="aspect=fixed;html=1;points=[];align=center;image;fontSize=12;image=img/lib/mscae/App_Service_Mobile_App.svg;" parent="1" vertex="1">
          <mxGeometry x="714.5" y="724" width="34" height="50" as="geometry" />
        </mxCell>
        <mxCell id="7UlHeGkB-n3cVjGxctKM-18" style="rounded=1;orthogonalLoop=1;jettySize=auto;html=1;exitX=1;exitY=0.5;exitDx=0;exitDy=0;exitPerimeter=0;endArrow=none;endFill=0;startArrow=none;startFill=0;entryX=0;entryY=0.5;entryDx=0;entryDy=0;entryPerimeter=0;" parent="1" source="7UlHeGkB-n3cVjGxctKM-2" target="7UlHeGkB-n3cVjGxctKM-6" edge="1">
          <mxGeometry relative="1" as="geometry">
            <mxPoint x="230.5" y="403" as="sourcePoint" />
            <mxPoint x="135" y="403" as="targetPoint" />
          </mxGeometry>
        </mxCell>
        <mxCell id="7UlHeGkB-n3cVjGxctKM-19" style="rounded=1;orthogonalLoop=1;jettySize=auto;html=1;exitX=1;exitY=0.5;exitDx=0;exitDy=0;exitPerimeter=0;endArrow=none;endFill=0;startArrow=none;startFill=0;entryX=0.5;entryY=1;entryDx=0;entryDy=0;entryPerimeter=0;" parent="1" source="7UlHeGkB-n3cVjGxctKM-6" target="7UlHeGkB-n3cVjGxctKM-7" edge="1">
          <mxGeometry relative="1" as="geometry">
            <mxPoint x="230.5" y="403" as="sourcePoint" />
            <mxPoint x="135" y="403" as="targetPoint" />
          </mxGeometry>
        </mxCell>
        <mxCell id="7UlHeGkB-n3cVjGxctKM-23" value="" style="points=[[0,0.58,0],[0.09,0.58,0],[0.36,0.39,0],[0.64,0.195,0],[0.91,0,0],[1,0,0],[1,0.25,0],[1,0.5,0],[1,0.75,0],[1,1,0],[0,1,0],[0.09,1,0],[0.36,1,0],[0.64,1,0],[0.91,1,0],[0,0.79,0]];verticalLabelPosition=bottom;html=1;verticalAlign=top;aspect=fixed;align=center;pointerEvents=1;shape=mxgraph.cisco19.wifi_indicator;fillColor=#005073;strokeColor=none;" parent="1" vertex="1">
          <mxGeometry x="115" y="928" width="50" height="50" as="geometry" />
        </mxCell>
        <mxCell id="7UlHeGkB-n3cVjGxctKM-24" style="rounded=1;orthogonalLoop=1;jettySize=auto;html=1;exitX=0;exitY=0.5;exitDx=0;exitDy=0;exitPerimeter=0;endArrow=none;endFill=0;startArrow=none;startFill=0;entryX=1;entryY=0.5;entryDx=0;entryDy=0;entryPerimeter=0;" parent="1" source="EAKdSy7ptGbpC2-vD8Ey-4" target="7UlHeGkB-n3cVjGxctKM-23" edge="1">
          <mxGeometry relative="1" as="geometry">
            <mxPoint x="240" y="861.5" as="sourcePoint" />
            <mxPoint x="144" y="860" as="targetPoint" />
          </mxGeometry>
        </mxCell>
        <mxCell id="7UlHeGkB-n3cVjGxctKM-25" style="rounded=1;orthogonalLoop=1;jettySize=auto;html=1;exitX=0.5;exitY=0;exitDx=0;exitDy=0;exitPerimeter=0;endArrow=none;endFill=0;startArrow=none;startFill=0;entryX=0.5;entryY=1;entryDx=0;entryDy=0;entryPerimeter=0;" parent="1" source="7UlHeGkB-n3cVjGxctKM-3" target="7UlHeGkB-n3cVjGxctKM-8" edge="1">
          <mxGeometry relative="1" as="geometry">
            <mxPoint x="227.5" y="208" as="sourcePoint" />
            <mxPoint x="170.5" y="131" as="targetPoint" />
          </mxGeometry>
        </mxCell>
        <mxCell id="7UlHeGkB-n3cVjGxctKM-26" value="互联网" style="pointerEvents=1;shadow=0;dashed=0;html=1;strokeColor=none;fillColor=#505050;labelPosition=center;verticalLabelPosition=bottom;outlineConnect=0;verticalAlign=top;align=center;shape=mxgraph.office.clouds.cloud;" parent="1" vertex="1">
          <mxGeometry x="683.5" y="482" width="94" height="55" as="geometry" />
        </mxCell>
        <mxCell id="7UlHeGkB-n3cVjGxctKM-28" style="rounded=1;orthogonalLoop=1;jettySize=auto;html=1;endArrow=none;endFill=0;startArrow=none;startFill=0;entryX=0.5;entryY=1;entryDx=0;entryDy=0;entryPerimeter=0;" parent="1" source="7UlHeGkB-n3cVjGxctKM-17" target="7UlHeGkB-n3cVjGxctKM-12" edge="1">
          <mxGeometry relative="1" as="geometry">
            <mxPoint x="653" y="658" as="sourcePoint" />
            <mxPoint x="653.5" y="593" as="targetPoint" />
          </mxGeometry>
        </mxCell>
        <mxCell id="7UlHeGkB-n3cVjGxctKM-29" style="rounded=1;orthogonalLoop=1;jettySize=auto;html=1;endArrow=none;endFill=0;startArrow=none;startFill=0;exitX=0.5;exitY=0;exitDx=0;exitDy=0;exitPerimeter=0;" parent="1" source="7UlHeGkB-n3cVjGxctKM-12" target="7UlHeGkB-n3cVjGxctKM-26" edge="1">
          <mxGeometry relative="1" as="geometry">
            <mxPoint x="741.2524752475247" y="734" as="sourcePoint" />
            <mxPoint x="740.5" y="658" as="targetPoint" />
          </mxGeometry>
        </mxCell>
      </root>
    </mxGraphModel>
  </diagram>
</mxfile>
